<?xml version="1.0" encoding="utf-8"?>
<!-- Generator: Adobe Illustrator 18.0.0, SVG Export Plug-In . SVG Version: 6.00 Build 0)  -->
<!DOCTYPE svg PUBLIC "-//W3C//DTD SVG 1.1//EN" "http://www.w3.org/Graphics/SVG/1.1/DTD/svg11.dtd">
<svg version="1.1" id="Layer_1" xmlns="http://www.w3.org/2000/svg" xmlns:xlink="http://www.w3.org/1999/xlink" x="0px" y="0px"
	 viewBox="0 0 595.3 503.1" enable-background="new 0 0 595.3 503.1" xml:space="preserve">
<g>
	<path fill="#12100D" d="M249.8,176c0-8.4-6.8-15.3-15.3-15.3s-15.3,6.8-15.3,15.3s6.8,15.3,15.3,15.3S249.8,184.4,249.8,176z"/>
	<path fill="#12100D" d="M372.8,182.5c2.2,3.5,6.8,4.8,10.5,2.6c3.7-2.2,4.8-6.8,2.6-10.5c-4.8-7.9-13.3-12.6-22.8-12.6
		c-9.5,0-18.1,4.8-22.8,12.6c-2.2,3.5-1.1,8.3,2.6,10.5c1.2,0.7,2.6,1.1,3.9,1.1c2.6,0,5.1-1.3,6.5-3.7c2-3.3,5.6-5.2,9.8-5.2
		C367.1,177.1,370.8,179.2,372.8,182.5z"/>
	<path fill="#12100D" d="M561.2,59.2C553.8,45.5,515.9-13.9,433.9,3c-26.2,5.5-43.8,17.3-54.9,28.1c-4.3-2.7-8.9-4.8-13.9-6.1
		c-8.9-2.4-18.6-2.4-28.1,0.2c-11.2-8.8-24.9-13.7-39.2-13.7c-14.3,0-28,4.8-39.2,13.7c-9.5-2.6-19.2-2.7-28.1-0.2
		c-5,1.3-9.6,3.4-13.9,6.1C205.5,20.2,187.9,8.4,161.6,3c-82.3-17-120,42.5-127.6,56.2C12.7,69.3,0,89.5,0,115.8c0,3.5,2,6.8,5,8.5
		c3.1,1.7,6.8,1.7,9.9-0.1c0.1,0,7.8-4.6,18.2-7.3c4,21,20,63.6,83.6,63.6v-0.1c0.6,0,1.1,0.1,1.7,0.1c5.7,0,11.8-1.7,18.7-5.4
		c15.5-8.2,25.1-24.5,26-43.7c0.6-16.4-5-32.4-15.7-45.5c4.4,1.6,8.2,3.9,11.5,6.7c14.2,12.5,14.5,33.1,14.5,33.3h0.2
		c-0.2,1.3-0.4,2.6-0.6,3.9c-1.1,9.3-1,18.7,0.4,28.1c0,1.6,0.1,2.6,0.1,2.8h0.2c1.8,10.6,5.1,21.2,9.9,31.9
		c-0.6,2.9-14.7,69.3,20.9,106c8.7,8.9,17.3,16.1,25.9,21.6c7,30.8,34.4,53.7,67.3,53.7c32.7,0,60.3-23,67.3-53.7
		c8.5-5.5,17.2-12.7,25.9-21.6c35.5-36.6,21.5-103,20.9-106c4.8-10.6,8.1-21.1,9.9-31.7h0.4c0-0.2,0.1-1.5,0.1-3.4
		c1.3-9.3,1.5-18.6,0.4-27.7c-0.1-1.3-0.4-2.7-0.6-3.9h0.2c0-0.2,0.4-20.8,14.3-33.2c3.3-2.9,7.2-5.2,11.6-6.8
		c-10.7,13.2-16.5,29.1-15.9,45.5c0.7,19.2,10.5,35.5,26,43.7c6.8,3.7,13.1,5.4,18.8,5.4l0,0c0.6,0,1.1-0.1,1.7-0.1v0.1
		c63.6,0,79.6-42.6,83.6-63.6c10.4,2.7,18.2,7.3,18.2,7.3c3.1,1.8,6.8,2,9.9,0.1c3.1-1.7,5-5,5-8.5
		C595.3,89.5,582.7,69.3,561.2,59.2z M347.1,304.9c0,1.3-0.1,2.6-0.1,3.8c-19.9,14.2-33.8,5.1-39.4-0.1v-8.5
		c6.3-3.9,18.1-11.4,31.6-22C344.3,286,347.1,295.3,347.1,304.9z M392.6,105.1c-23.4-10.4-52.5-3.4-68.2,17
		c-35.2,45.8-8.5,113.4,4,139.5c-13.2,10.4-24.7,17.8-30.8,21.6c-6.1-3.8-17.3-11.1-30.4-21.4c12.6-26,39.4-93.8,4.2-139.8
		c-15.9-20.6-45.3-27.5-68.9-16.7c9.2-13.1,23.6-21.1,39.9-21.1c30.2,0,46.9,20.5,47.5,21.4c1.8,2.3,4.8,3.8,7.7,3.8
		c3.1,0,5.9-1.3,7.7-3.8c0.1-0.2,17-21.4,47.5-21.4C369.1,84.2,383.5,92.1,392.6,105.1z M208,124.5c15.6-8.9,37-4.6,47.9,9.4
		c26.6,34.8,7.3,89.4-4.2,114.8c-25.8-23-52.7-55.1-58.6-91.9C193,150.4,194.4,132.3,208,124.5z M248.3,304.9
		c0-9.6,2.8-18.9,7.9-26.9c13.6,10.6,25.3,18.2,31.6,22v8.5c-5.4,5-19.3,14.3-39.4,0C248.3,307.5,248.3,306.3,248.3,304.9z
		 M344,248.5c-11.5-25.5-30.6-79.8-4-114.5c10.7-14,32.2-18.3,47.9-9.4c13.2,7.4,14.5,24.7,14.7,31.5c-5.2,34.2-28.7,64-49.7,84.4
		C349.8,243.2,347,245.8,344,248.5z M235.6,43.9c8.4-2.3,16.4-0.5,21.6,1.6c3.5,1.3,7.6,0.5,10.3-2.1c0.1-0.1,0.1-0.1,0.2-0.2
		c8.2-7.7,18.8-12,29.9-12s21.7,4.3,29.9,11.8c0.1,0.1,0.2,0.2,0.4,0.2c2.7,2.6,6.7,3.4,10.3,2.1c5.2-2,13.2-3.9,21.6-1.6
		c8.9,2.4,16.2,8.3,20.9,16.6c2.1,3.8,3.4,7.8,4.2,12c-9.5-5-20.3-7.8-31.7-7.8c-26.7,0-45.5,12.5-55.2,21c-9.8-8.5-28.4-21-55.3-21
		c-11.5,0-22.2,2.8-31.7,7.8c0.6-4.2,2-8.2,4.2-12C219.4,52.2,226.7,46.4,235.6,43.9z M59.8,133.8c-3.9-6.6-6-13.2-7.1-18.4
		c6.6,0.9,12.3,3.5,17.3,7.8c7.4,6.6,12,16.6,16.5,26.4c1.1,2.4,2.3,5,3.5,7.4C76.7,152.9,66.5,145.1,59.8,133.8z M143.6,130.6
		c-0.5,12.2-6.2,22.3-15.5,27.2c-4.9,2.6-7.9,3.2-9.5,3.2c-4.9,0-8.2-6.2-14.2-19.4c-5-11.1-10.7-23.7-21.4-33
		c-9.9-8.7-22-13.2-35.9-13.2c-9.3,0-18.1,2-25.1,4.4c8.5-26.1,38-28.4,48.1-28.4c16.2,0,33.5,4.9,46.9,13.6
		C134.4,95.9,144.3,113,143.6,130.6z M172.1,78.1c-13.1-11.6-30.8-16.5-52.9-14.4c-15-7.6-32.5-12-49.2-12c-2.6,0-5,0.1-7.4,0.2
		c15-17.6,44.8-40.2,94.9-29.8c21.1,4.4,35.3,13.6,44.4,22.1c-1.6,2.1-2.9,4.3-4.3,6.6c-6.3,11.4-8.4,24.2-6.1,36.6
		c-2.2,2.6-4.3,5.2-6.2,8.1C182.3,89.6,178,83.4,172.1,78.1z M218.7,284.9c-16.5-17-19.2-44.2-18.4-63.8
		c8.1,11.4,17.7,22.6,29.1,33.6c3.9,3.8,7.8,7.4,11.7,10.9c-6.1,8.8-10.1,18.9-11.6,29.5C225.9,292,222.2,288.7,218.7,284.9z
		 M297.6,354.4c-16,0-30.3-7.7-39.3-19.5c3.7,0.9,7.1,1.2,10.4,1.2c12.6,0,22.7-5.5,29.1-10.3c6.3,4.8,16.4,10.3,29.1,10.3
		c3.3,0,6.7-0.4,10.3-1.2C327.9,346.7,313.8,354.4,297.6,354.4z M376.6,284.9c-3.7,3.7-7.2,7.1-10.7,10.1
		c-1.5-10.6-5.5-20.8-11.6-29.5c3.9-3.4,7.8-7,11.7-10.9c11.4-11,21.1-22.2,29.1-33.6C395.8,240.8,393.2,267.9,376.6,284.9z
		 M423.3,78.1c-6,5.2-10.3,11.5-13.2,17.5c-2-2.8-4-5.5-6.2-8.1c2.3-12.5,0.2-25.4-6.1-36.6c-1.3-2.3-2.7-4.5-4.3-6.5
		c9.2-8.5,23.3-17.8,44.4-22.1c50.1-10.4,79.8,12.2,94.9,29.8c-2.4-0.1-4.9-0.2-7.4-0.2c-16.7,0-34.2,4.3-49.2,12
		C454,61.6,436.2,66.5,423.3,78.1z M505.4,157.1c1.2-2.4,2.3-5,3.4-7.4c4.4-9.8,9-19.9,16.5-26.4c5-4.4,10.7-7,17.5-7.8
		C540.1,127.8,531.8,148.5,505.4,157.1z M548.2,95.4c-13.9,0-26,4.4-35.9,13.2c-10.6,9.3-16.2,21.9-21.4,33
		c-6,13.2-9.3,19.4-14.2,19.4c-1.7,0-4.6-0.5-9.5-3.2c-9.3-4.9-15-15-15.5-27.2C451,113,461,95.9,478.3,84.8
		c13.6-8.5,30.6-13.6,47-13.6c10,0,39.4,2.3,48.1,28.4C566.2,97.4,557.4,95.4,548.2,95.4z"/>
</g>
<g enable-background="new    ">
	<path fill="#010202" d="M118.3,442.8l-19.5,60.4H84.6l-10.4-34.6l-10.4,34.6H49.5l-19.5-60.4h16.3l10.3,38.1l10.8-38.1h13.4
		l10.8,38.1l10.3-38.1H118.3z"/>
</g>
<g enable-background="new    ">
	<path fill="#010202" d="M160.9,455.4v11.1h23v12.8h-23v11h26.5v12.8h-42.1v-60.4h42.1v12.7H160.9z"/>
</g>
<g enable-background="new    ">
	<path fill="#010202" d="M262.2,486.5c0,14.8-15.1,16.7-25.1,16.7h-22.3v-60.4h20.5c9.3,0,23.9,1.7,23.9,16.9
		c0,8.3-6.2,10.7-9.1,11.7C258.1,473.6,262.2,478.2,262.2,486.5z M230.5,466.4h8c2.5,0,5.7-1.7,5.7-5.1c0-4.5-3.8-5.9-6.6-5.9h-7.1
		V466.4z M247.1,483.8c0-5-4.9-6.4-8.1-6.4h-8.6v13h8.9C243.2,490.5,247.1,488.6,247.1,483.8z"/>
</g>
<g enable-background="new    ">
	<path fill="#010202" d="M326,503.1l-15.4-23.5l-4.3,4.8v18.7h-15.6v-60.4h15.6V464l16.6-21.3h21L320.3,469l25.4,34.1H326z"/>
</g>
<g enable-background="new    ">
	<path fill="#010202" d="M427.6,442.8v60.4h-15.4l-24.7-35.9v35.9h-15.6v-60.4h15.6L412,479v-36.2H427.6z"/>
</g>
<g enable-background="new    ">
	<path fill="#010202" d="M454.5,503.1v-60.4h15.6v60.4H454.5z"/>
	<path fill="#010202" d="M547.8,442.8v14.1h-17.6v46.3h-15.6v-46.3h-17.4v-14.1H547.8z"/>
</g>
</svg>
